<svg xmlns="http://www.w3.org/2000/svg" viewBox="0 0 24 24"><path d="M0 0h24v24H0V0zm22.034 18.276c-.175-1.095-.888-2.015-3.003-2.873-.736-.345-1.554-.585-1.797-1.14-.09-.33-.105-.5-.046-.705.15-.646.915-.84 1.515-.66.4.12.75.42.976.9l1.755-1.125c-.27-.42-.404-.6-.586-.78-.63-.705-1.47-1.065-2.834-1.034l-.705.09c-.676.165-1.32.525-1.7 1.005-1.14 1.29-.81 3.54.57 4.47 1.365 1.02 3.36 1.244 3.616 2.205.24 1.17-.87 1.545-1.966 1.4-.81-.18-1.26-.586-1.755-1.336l-1.83 1.05c.2.48.45.69.8 1.11 1.74 1.756 6.1 1.666 6.87-1.004.03-.1.24-.705.074-1.65l.046.067zM13.05 11.03h-2.248l-.01 5.805c0 1.232.063 2.363-.138 2.71-.33.69-1.18.6-1.566.48-.396-.196-.597-.466-.83-.855-.063-.105-.1-.196-.127-.196L6.308 20.1c.305.63.75 1.172 1.324 1.517.855.5 2.004.675 3.207.405.783-.226 1.458-.69 1.81-1.41.5-.93.402-2.07.397-3.346v-6.18l.004-.056z"/></svg>